<?xml version="1.0" encoding="us-ascii" standalone="no"?><svg xmlns="http://www.w3.org/2000/svg" xmlns:xlink="http://www.w3.org/1999/xlink" contentStyleType="text/css" height="881px" preserveAspectRatio="none" style="width:1545px;height:881px;background:#DDDDDD;" version="1.1" viewBox="0 0 1545 881" width="1545px" zoomAndPan="magnify"><defs/><g><rect fill="#DDDDDD" height="881" style="stroke:none;stroke-width:1.0;" width="1545" x="0" y="0"/><!--cluster core--><g id="cluster_core"><path d="M231.5,6 L265.5,6 A5.25,5.25 0 0 1 269,9.5 L276,28.2969 L926.5,28.2969 A3.5,3.5 0 0 1 930,31.7969 L930,231.5 A3.5,3.5 0 0 1 926.5,235 L231.5,235 A3.5,3.5 0 0 1 228,231.5 L228,9.5 A3.5,3.5 0 0 1 231.5,6 " fill="none" style="stroke:#454645;stroke-width:1.0;"/><line style="stroke:#454645;stroke-width:1.0;" x1="228" x2="276" y1="28.2969" y2="28.2969"/><text fill="#000000" font-family="sans-serif" font-size="14" font-weight="bold" lengthAdjust="spacing" textLength="35" x="232" y="20.9951">core</text></g><!--cluster ui--><g id="cluster_ui"><path d="M9.5,259 L23.5,259 A5.25,5.25 0 0 1 27,262.5 L34,281.2969 L944.5,281.2969 A3.5,3.5 0 0 1 948,284.7969 L948,870.5 A3.5,3.5 0 0 1 944.5,874 L9.5,874 A3.5,3.5 0 0 1 6,870.5 L6,262.5 A3.5,3.5 0 0 1 9.5,259 " fill="none" style="stroke:#454645;stroke-width:1.0;"/><line style="stroke:#454645;stroke-width:1.0;" x1="6" x2="34" y1="281.2969" y2="281.2969"/><text fill="#000000" font-family="sans-serif" font-size="14" font-weight="bold" lengthAdjust="spacing" textLength="15" x="10" y="273.9951">ui</text></g><!--cluster utility--><g id="cluster_utility"><path d="M957.5,14 L1006.5,14 A5.25,5.25 0 0 1 1010,17.5 L1017,36.2969 L1534.5,36.2969 A3.5,3.5 0 0 1 1538,39.7969 L1538,223.5 A3.5,3.5 0 0 1 1534.5,227 L957.5,227 A3.5,3.5 0 0 1 954,223.5 L954,17.5 A3.5,3.5 0 0 1 957.5,14 " fill="none" style="stroke:#454645;stroke-width:1.0;"/><line style="stroke:#454645;stroke-width:1.0;" x1="954" x2="1017" y1="36.2969" y2="36.2969"/><text fill="#000000" font-family="sans-serif" font-size="14" font-weight="bold" lengthAdjust="spacing" textLength="50" x="958" y="28.9951">utility</text></g><!--cluster javafx--><g id="cluster_javafx"><path d="M11.5,28 L60.5,28 A5.25,5.25 0 0 1 64,31.5 L71,50.2969 L200.5,50.2969 A3.5,3.5 0 0 1 204,53.7969 L204,190.5 A3.5,3.5 0 0 1 200.5,194 L11.5,194 A3.5,3.5 0 0 1 8,190.5 L8,31.5 A3.5,3.5 0 0 1 11.5,28 " fill="none" style="stroke:#454645;stroke-width:1.0;"/><line style="stroke:#454645;stroke-width:1.0;" x1="8" x2="71" y1="50.2969" y2="50.2969"/><text fill="#000000" font-family="sans-serif" font-size="14" font-weight="bold" lengthAdjust="spacing" textLength="50" x="12" y="42.9951">javafx</text></g><!--cluster application--><g id="cluster_application"><path d="M35.5,71 L126.5,71 A5.25,5.25 0 0 1 130,74.5 L137,93.2969 L176.5,93.2969 A3.5,3.5 0 0 1 180,96.7969 L180,166.5 A3.5,3.5 0 0 1 176.5,170 L35.5,170 A3.5,3.5 0 0 1 32,166.5 L32,74.5 A3.5,3.5 0 0 1 35.5,71 " fill="none" style="stroke:#454645;stroke-width:1.0;"/><line style="stroke:#454645;stroke-width:1.0;" x1="32" x2="137" y1="93.2969" y2="93.2969"/><text fill="#000000" font-family="sans-serif" font-size="14" font-weight="bold" lengthAdjust="spacing" textLength="92" x="36" y="85.9951">application</text></g><!--class Category--><g id="elem_Category"><rect codeLine="2" fill="#F1F1F1" height="178.375" id="Category" rx="3.5" ry="3.5" style="stroke:#181818;stroke-width:0.5;" width="307" x="606.5" y="41"/><ellipse cx="722.75" cy="57" fill="#ADD1B2" rx="11" ry="11" style="stroke:#181818;stroke-width:1.0;"/><path d="M725.0938,52.6719 C724.1563,52.2344 723.5625,52.0938 722.6875,52.0938 C720.0625,52.0938 718.0625,54.1719 718.0625,56.8906 L718.0625,58.0156 C718.0625,60.5938 720.1719,62.4844 723.0625,62.4844 C724.2813,62.4844 725.4375,62.1875 726.1875,61.6406 C726.7656,61.2344 727.0938,60.7813 727.0938,60.3906 C727.0938,59.9375 726.7031,59.5469 726.2344,59.5469 C726.0156,59.5469 725.8125,59.625 725.625,59.8125 C725.1719,60.2969 725.1719,60.2969 724.9844,60.3906 C724.5625,60.6563 723.875,60.7813 723.1094,60.7813 C721.0625,60.7813 719.7656,59.6875 719.7656,57.9844 L719.7656,56.8906 C719.7656,55.1094 721.0156,53.7969 722.75,53.7969 C723.3281,53.7969 723.9375,53.9531 724.4063,54.2031 C724.8906,54.4844 725.0625,54.7031 725.1563,55.1094 C725.2188,55.5156 725.25,55.6406 725.3906,55.7656 C725.5313,55.9063 725.7656,56.0156 725.9844,56.0156 C726.25,56.0156 726.5156,55.875 726.6875,55.6563 C726.7969,55.5 726.8281,55.3125 726.8281,54.8906 L726.8281,53.4688 C726.8281,53.0313 726.8125,52.9063 726.7188,52.75 C726.5625,52.4844 726.2813,52.3438 725.9844,52.3438 C725.6875,52.3438 725.4844,52.4375 725.2656,52.75 L725.0938,52.6719 Z " fill="#000000"/><text fill="#000000" font-family="sans-serif" font-size="14" lengthAdjust="spacing" textLength="66" x="743.25" y="61.8467">Category</text><line style="stroke:#181818;stroke-width:0.5;" x1="607.5" x2="912.5" y1="73" y2="73"/><rect fill="none" height="6" style="stroke:#C82930;stroke-width:1.0;" width="6" x="614.5" y="83.6484"/><text fill="#000000" font-family="sans-serif" font-size="14" lengthAdjust="spacing" textLength="153" x="626.5" y="89.9951">String categoryName</text><rect fill="none" height="6" style="stroke:#C82930;stroke-width:1.0;" width="6" x="614.5" y="99.9453"/><text fill="#000000" font-family="sans-serif" font-size="14" lengthAdjust="spacing" textLength="79" x="626.5" y="106.292">int amount</text><rect fill="none" height="6" style="stroke:#C82930;stroke-width:1.0;" width="6" x="614.5" y="116.2422"/><text fill="#000000" font-family="sans-serif" font-size="14" lengthAdjust="spacing" textLength="251" x="626.5" y="122.5889">ArrayList&lt;Integer&gt; addedAmounts</text><line style="stroke:#181818;stroke-width:0.5;" x1="607.5" x2="912.5" y1="129.8906" y2="129.8906"/><ellipse cx="617.5" cy="143.5391" fill="#84BE84" rx="3" ry="3" style="stroke:#038048;stroke-width:1.0;"/><text fill="#000000" font-family="sans-serif" font-size="14" lengthAdjust="spacing" textLength="190" x="626.5" y="146.8857">String getCategoryName()</text><ellipse cx="617.5" cy="159.8359" fill="#84BE84" rx="3" ry="3" style="stroke:#038048;stroke-width:1.0;"/><text fill="#000000" font-family="sans-serif" font-size="14" lengthAdjust="spacing" textLength="116" x="626.5" y="163.1826">int getAmount()</text><ellipse cx="617.5" cy="176.1328" fill="#84BE84" rx="3" ry="3" style="stroke:#038048;stroke-width:1.0;"/><text fill="#000000" font-family="sans-serif" font-size="14" lengthAdjust="spacing" textLength="147" x="626.5" y="179.4795">void addAmount(int)</text><ellipse cx="617.5" cy="192.4297" fill="#84BE84" rx="3" ry="3" style="stroke:#038048;stroke-width:1.0;"/><text fill="#000000" font-family="sans-serif" font-size="14" lengthAdjust="spacing" textLength="281" x="626.5" y="195.7764">ArrayList&lt;Integer&gt; getBudgetHistory()</text><ellipse cx="617.5" cy="208.7266" fill="#84BE84" rx="3" ry="3" style="stroke:#038048;stroke-width:1.0;"/><text fill="#000000" font-family="sans-serif" font-size="14" lengthAdjust="spacing" textLength="118" x="626.5" y="212.0732">String toString()</text></g><!--class Calculation--><g id="elem_Calculation"><rect codeLine="12" fill="#F1F1F1" height="178.375" id="Calculation" rx="3.5" ry="3.5" style="stroke:#181818;stroke-width:0.5;" width="327" x="244.5" y="41"/><ellipse cx="364.25" cy="57" fill="#ADD1B2" rx="11" ry="11" style="stroke:#181818;stroke-width:1.0;"/><path d="M366.5938,52.6719 C365.6563,52.2344 365.0625,52.0938 364.1875,52.0938 C361.5625,52.0938 359.5625,54.1719 359.5625,56.8906 L359.5625,58.0156 C359.5625,60.5938 361.6719,62.4844 364.5625,62.4844 C365.7813,62.4844 366.9375,62.1875 367.6875,61.6406 C368.2656,61.2344 368.5938,60.7813 368.5938,60.3906 C368.5938,59.9375 368.2031,59.5469 367.7344,59.5469 C367.5156,59.5469 367.3125,59.625 367.125,59.8125 C366.6719,60.2969 366.6719,60.2969 366.4844,60.3906 C366.0625,60.6563 365.375,60.7813 364.6094,60.7813 C362.5625,60.7813 361.2656,59.6875 361.2656,57.9844 L361.2656,56.8906 C361.2656,55.1094 362.5156,53.7969 364.25,53.7969 C364.8281,53.7969 365.4375,53.9531 365.9063,54.2031 C366.3906,54.4844 366.5625,54.7031 366.6563,55.1094 C366.7188,55.5156 366.75,55.6406 366.8906,55.7656 C367.0313,55.9063 367.2656,56.0156 367.4844,56.0156 C367.75,56.0156 368.0156,55.875 368.1875,55.6563 C368.2969,55.5 368.3281,55.3125 368.3281,54.8906 L368.3281,53.4688 C368.3281,53.0313 368.3125,52.9063 368.2188,52.75 C368.0625,52.4844 367.7813,52.3438 367.4844,52.3438 C367.1875,52.3438 366.9844,52.4375 366.7656,52.75 L366.5938,52.6719 Z " fill="#000000"/><text fill="#000000" font-family="sans-serif" font-size="14" lengthAdjust="spacing" textLength="79" x="384.75" y="61.8467">Calculation</text><line style="stroke:#181818;stroke-width:0.5;" x1="245.5" x2="570.5" y1="73" y2="73"/><rect fill="none" height="6" style="stroke:#C82930;stroke-width:1.0;" width="6" x="252.5" y="83.6484"/><text fill="#000000" font-family="sans-serif" font-size="14" lengthAdjust="spacing" textLength="258" x="264.5" y="89.9951">ArrayList&lt;Category&gt; categoriesList</text><line style="stroke:#181818;stroke-width:0.5;" x1="245.5" x2="570.5" y1="97.2969" y2="97.2969"/><ellipse cx="255.5" cy="110.9453" fill="#84BE84" rx="3" ry="3" style="stroke:#038048;stroke-width:1.0;"/><text fill="#000000" font-family="sans-serif" font-size="14" lengthAdjust="spacing" textLength="301" x="264.5" y="114.292">void addAmountToCategory(Category,int)</text><ellipse cx="255.5" cy="127.2422" fill="#84BE84" rx="3" ry="3" style="stroke:#038048;stroke-width:1.0;"/><text fill="#000000" font-family="sans-serif" font-size="14" lengthAdjust="spacing" textLength="156" x="264.5" y="130.5889">int getSum(Category)</text><ellipse cx="255.5" cy="143.5391" fill="#84BE84" rx="3" ry="3" style="stroke:#038048;stroke-width:1.0;"/><text fill="#000000" font-family="sans-serif" font-size="14" lengthAdjust="spacing" textLength="215" x="264.5" y="146.8857">Category getCategory(String)</text><ellipse cx="255.5" cy="159.8359" fill="#84BE84" rx="3" ry="3" style="stroke:#038048;stroke-width:1.0;"/><text fill="#000000" font-family="sans-serif" font-size="14" lengthAdjust="spacing" textLength="127" x="264.5" y="163.1826">int getTotalSum()</text><rect fill="#F24D5C" height="6" style="stroke:#C82930;stroke-width:1.0;" width="6" x="252.5" y="173.1328"/><text fill="#000000" font-family="sans-serif" font-size="14" lengthAdjust="spacing" textLength="256" x="264.5" y="179.4795">boolean checkAmountIscorrect(int)</text><ellipse cx="255.5" cy="192.4297" fill="#84BE84" rx="3" ry="3" style="stroke:#038048;stroke-width:1.0;"/><text fill="#000000" font-family="sans-serif" font-size="14" lengthAdjust="spacing" textLength="295" x="264.5" y="195.7764">ArrayList&lt;Category&gt; getCategoriesList()</text><ellipse cx="255.5" cy="208.7266" fill="#84BE84" rx="3" ry="3" style="stroke:#038048;stroke-width:1.0;"/><text fill="#000000" font-family="sans-serif" font-size="14" lengthAdjust="spacing" text-decoration="underline" textLength="133" x="264.5" y="212.0732">void main(String[])</text></g><!--class ChangeScene--><g id="elem_ChangeScene"><rect codeLine="22" fill="#F1F1F1" height="64.2969" id="ChangeScene" rx="3.5" ry="3.5" style="stroke:#181818;stroke-width:0.5;" width="314" x="225" y="441"/><ellipse cx="328.75" cy="457" fill="#ADD1B2" rx="11" ry="11" style="stroke:#181818;stroke-width:1.0;"/><path d="M331.0938,452.6719 C330.1563,452.2344 329.5625,452.0938 328.6875,452.0938 C326.0625,452.0938 324.0625,454.1719 324.0625,456.8906 L324.0625,458.0156 C324.0625,460.5938 326.1719,462.4844 329.0625,462.4844 C330.2813,462.4844 331.4375,462.1875 332.1875,461.6406 C332.7656,461.2344 333.0938,460.7813 333.0938,460.3906 C333.0938,459.9375 332.7031,459.5469 332.2344,459.5469 C332.0156,459.5469 331.8125,459.625 331.625,459.8125 C331.1719,460.2969 331.1719,460.2969 330.9844,460.3906 C330.5625,460.6563 329.875,460.7813 329.1094,460.7813 C327.0625,460.7813 325.7656,459.6875 325.7656,457.9844 L325.7656,456.8906 C325.7656,455.1094 327.0156,453.7969 328.75,453.7969 C329.3281,453.7969 329.9375,453.9531 330.4063,454.2031 C330.8906,454.4844 331.0625,454.7031 331.1563,455.1094 C331.2188,455.5156 331.25,455.6406 331.3906,455.7656 C331.5313,455.9063 331.7656,456.0156 331.9844,456.0156 C332.25,456.0156 332.5156,455.875 332.6875,455.6563 C332.7969,455.5 332.8281,455.3125 332.8281,454.8906 L332.8281,453.4688 C332.8281,453.0313 332.8125,452.9063 332.7188,452.75 C332.5625,452.4844 332.2813,452.3438 331.9844,452.3438 C331.6875,452.3438 331.4844,452.4375 331.2656,452.75 L331.0938,452.6719 Z " fill="#000000"/><text fill="#000000" font-family="sans-serif" font-size="14" lengthAdjust="spacing" textLength="98" x="349.25" y="461.8467">ChangeScene</text><line style="stroke:#181818;stroke-width:0.5;" x1="226" x2="538" y1="473" y2="473"/><line style="stroke:#181818;stroke-width:0.5;" x1="226" x2="538" y1="481" y2="481"/><ellipse cx="236" cy="494.6484" fill="#84BE84" rx="3" ry="3" style="stroke:#038048;stroke-width:1.0;"/><text fill="#000000" font-family="sans-serif" font-size="14" lengthAdjust="spacing" text-decoration="underline" textLength="288" x="245" y="497.9951">void changeToScene(Class,Event,String)</text></g><!--class BudgetController--><g id="elem_BudgetController"><rect codeLine="25" fill="#F1F1F1" height="357.6406" id="BudgetController" rx="3.5" ry="3.5" style="stroke:#181818;stroke-width:0.5;" width="358" x="574" y="294"/><ellipse cx="686.25" cy="310" fill="#ADD1B2" rx="11" ry="11" style="stroke:#181818;stroke-width:1.0;"/><path d="M688.5938,305.6719 C687.6563,305.2344 687.0625,305.0938 686.1875,305.0938 C683.5625,305.0938 681.5625,307.1719 681.5625,309.8906 L681.5625,311.0156 C681.5625,313.5938 683.6719,315.4844 686.5625,315.4844 C687.7813,315.4844 688.9375,315.1875 689.6875,314.6406 C690.2656,314.2344 690.5938,313.7813 690.5938,313.3906 C690.5938,312.9375 690.2031,312.5469 689.7344,312.5469 C689.5156,312.5469 689.3125,312.625 689.125,312.8125 C688.6719,313.2969 688.6719,313.2969 688.4844,313.3906 C688.0625,313.6563 687.375,313.7813 686.6094,313.7813 C684.5625,313.7813 683.2656,312.6875 683.2656,310.9844 L683.2656,309.8906 C683.2656,308.1094 684.5156,306.7969 686.25,306.7969 C686.8281,306.7969 687.4375,306.9531 687.9063,307.2031 C688.3906,307.4844 688.5625,307.7031 688.6563,308.1094 C688.7188,308.5156 688.75,308.6406 688.8906,308.7656 C689.0313,308.9063 689.2656,309.0156 689.4844,309.0156 C689.75,309.0156 690.0156,308.875 690.1875,308.6563 C690.2969,308.5 690.3281,308.3125 690.3281,307.8906 L690.3281,306.4688 C690.3281,306.0313 690.3125,305.9063 690.2188,305.75 C690.0625,305.4844 689.7813,305.3438 689.4844,305.3438 C689.1875,305.3438 688.9844,305.4375 688.7656,305.75 L688.5938,305.6719 Z " fill="#000000"/><text fill="#000000" font-family="sans-serif" font-size="14" lengthAdjust="spacing" textLength="125" x="706.75" y="314.8467">BudgetController</text><line style="stroke:#181818;stroke-width:0.5;" x1="575" x2="931" y1="326" y2="326"/><rect fill="none" height="6" style="stroke:#C82930;stroke-width:1.0;" width="6" x="582" y="336.6484"/><text fill="#000000" font-family="sans-serif" font-size="14" lengthAdjust="spacing" text-decoration="underline" textLength="190" x="594" y="342.9951">BudgetController instance</text><rect fill="none" height="6" style="stroke:#C82930;stroke-width:1.0;" width="6" x="582" y="352.9453"/><text fill="#000000" font-family="sans-serif" font-size="14" lengthAdjust="spacing" textLength="204" x="594" y="359.292">TableView&lt;Category&gt; table</text><rect fill="none" height="6" style="stroke:#C82930;stroke-width:1.0;" width="6" x="582" y="369.2422"/><text fill="#000000" font-family="sans-serif" font-size="14" lengthAdjust="spacing" textLength="112" x="594" y="375.5889">Button saveBtn</text><rect fill="none" height="6" style="stroke:#C82930;stroke-width:1.0;" width="6" x="582" y="385.5391"/><text fill="#000000" font-family="sans-serif" font-size="14" lengthAdjust="spacing" textLength="144" x="594" y="391.8857">ImageView saveIcon</text><rect fill="none" height="6" style="stroke:#C82930;stroke-width:1.0;" width="6" x="582" y="401.8359"/><text fill="#000000" font-family="sans-serif" font-size="14" lengthAdjust="spacing" textLength="109" x="594" y="408.1826">TextField input</text><rect fill="none" height="6" style="stroke:#C82930;stroke-width:1.0;" width="6" x="582" y="418.1328"/><text fill="#000000" font-family="sans-serif" font-size="14" lengthAdjust="spacing" textLength="118" x="594" y="424.4795">Button inputBtn</text><rect fill="none" height="6" style="stroke:#C82930;stroke-width:1.0;" width="6" x="582" y="434.4297"/><text fill="#000000" font-family="sans-serif" font-size="14" lengthAdjust="spacing" textLength="298" x="594" y="440.7764">TableColumn&lt;Category,String&gt; category</text><rect fill="none" height="6" style="stroke:#C82930;stroke-width:1.0;" width="6" x="582" y="450.7266"/><text fill="#000000" font-family="sans-serif" font-size="14" lengthAdjust="spacing" textLength="332" x="594" y="457.0732">TableColumn&lt;Category,Integer&gt; amountUsed</text><rect fill="none" height="6" style="stroke:#C82930;stroke-width:1.0;" width="6" x="582" y="467.0234"/><text fill="#000000" font-family="sans-serif" font-size="14" lengthAdjust="spacing" textLength="140" x="594" y="473.3701">SplitPane splitPane</text><rect fill="none" height="6" style="stroke:#C82930;stroke-width:1.0;" width="6" x="582" y="483.3203"/><text fill="#000000" font-family="sans-serif" font-size="14" lengthAdjust="spacing" textLength="208" x="594" y="489.667">ComboBox&lt;String&gt; selector</text><rect fill="none" height="6" style="stroke:#C82930;stroke-width:1.0;" width="6" x="582" y="499.6172"/><text fill="#000000" font-family="sans-serif" font-size="14" lengthAdjust="spacing" textLength="103" x="594" y="505.9639">Text totalSum</text><rect fill="none" height="6" style="stroke:#C82930;stroke-width:1.0;" width="6" x="582" y="515.9141"/><text fill="#000000" font-family="sans-serif" font-size="14" lengthAdjust="spacing" textLength="163" x="594" y="522.2607">Button returnMenuBtn</text><rect fill="none" height="6" style="stroke:#C82930;stroke-width:1.0;" width="6" x="582" y="532.2109"/><text fill="#000000" font-family="sans-serif" font-size="14" lengthAdjust="spacing" textLength="290" x="594" y="538.5576">ObservableList&lt;Category&gt; categoryList</text><rect fill="none" height="6" style="stroke:#C82930;stroke-width:1.0;" width="6" x="582" y="548.5078"/><text fill="#000000" font-family="sans-serif" font-size="14" lengthAdjust="spacing" textLength="111" x="594" y="554.8545">Calculation calc</text><line style="stroke:#181818;stroke-width:0.5;" x1="575" x2="931" y1="562.1563" y2="562.1563"/><ellipse cx="585" cy="575.8047" fill="#84BE84" rx="3" ry="3" style="stroke:#038048;stroke-width:1.0;"/><text fill="#000000" font-family="sans-serif" font-size="14" lengthAdjust="spacing" text-decoration="underline" textLength="225" x="594" y="579.1514">BudgetController getInstance()</text><ellipse cx="585" cy="592.1016" fill="#84BE84" rx="3" ry="3" style="stroke:#038048;stroke-width:1.0;"/><text fill="#000000" font-family="sans-serif" font-size="14" lengthAdjust="spacing" textLength="105" x="594" y="595.4482">void initialize()</text><rect fill="#F24D5C" height="6" style="stroke:#C82930;stroke-width:1.0;" width="6" x="582" y="605.3984"/><text fill="#000000" font-family="sans-serif" font-size="14" lengthAdjust="spacing" textLength="234" x="594" y="611.7451">void loadMainMenu(ActionEvent)</text><ellipse cx="585" cy="624.6953" fill="#84BE84" rx="3" ry="3" style="stroke:#038048;stroke-width:1.0;"/><text fill="#000000" font-family="sans-serif" font-size="14" lengthAdjust="spacing" textLength="127" x="594" y="628.042">void addAmount()</text><ellipse cx="585" cy="640.9922" fill="#84BE84" rx="3" ry="3" style="stroke:#038048;stroke-width:1.0;"/><text fill="#000000" font-family="sans-serif" font-size="14" lengthAdjust="spacing" textLength="128" x="594" y="644.3389">void saveBudget()</text></g><!--class StartMenuController--><g id="elem_StartMenuController"><rect codeLine="54" fill="#F1F1F1" height="145.7813" id="StartMenuController" rx="3.5" ry="3.5" style="stroke:#181818;stroke-width:0.5;" width="280" x="242" y="712"/><ellipse cx="303.75" cy="728" fill="#ADD1B2" rx="11" ry="11" style="stroke:#181818;stroke-width:1.0;"/><path d="M306.0938,723.6719 C305.1563,723.2344 304.5625,723.0938 303.6875,723.0938 C301.0625,723.0938 299.0625,725.1719 299.0625,727.8906 L299.0625,729.0156 C299.0625,731.5938 301.1719,733.4844 304.0625,733.4844 C305.2813,733.4844 306.4375,733.1875 307.1875,732.6406 C307.7656,732.2344 308.0938,731.7813 308.0938,731.3906 C308.0938,730.9375 307.7031,730.5469 307.2344,730.5469 C307.0156,730.5469 306.8125,730.625 306.625,730.8125 C306.1719,731.2969 306.1719,731.2969 305.9844,731.3906 C305.5625,731.6563 304.875,731.7813 304.1094,731.7813 C302.0625,731.7813 300.7656,730.6875 300.7656,728.9844 L300.7656,727.8906 C300.7656,726.1094 302.0156,724.7969 303.75,724.7969 C304.3281,724.7969 304.9375,724.9531 305.4063,725.2031 C305.8906,725.4844 306.0625,725.7031 306.1563,726.1094 C306.2188,726.5156 306.25,726.6406 306.3906,726.7656 C306.5313,726.9063 306.7656,727.0156 306.9844,727.0156 C307.25,727.0156 307.5156,726.875 307.6875,726.6563 C307.7969,726.5 307.8281,726.3125 307.8281,725.8906 L307.8281,724.4688 C307.8281,724.0313 307.8125,723.9063 307.7188,723.75 C307.5625,723.4844 307.2813,723.3438 306.9844,723.3438 C306.6875,723.3438 306.4844,723.4375 306.2656,723.75 L306.0938,723.6719 Z " fill="#000000"/><text fill="#000000" font-family="sans-serif" font-size="14" lengthAdjust="spacing" textLength="148" x="324.25" y="732.8467">StartMenuController</text><line style="stroke:#181818;stroke-width:0.5;" x1="243" x2="521" y1="744" y2="744"/><rect fill="none" height="6" style="stroke:#C82930;stroke-width:1.0;" width="6" x="250" y="754.6484"/><text fill="#000000" font-family="sans-serif" font-size="14" lengthAdjust="spacing" textLength="162" x="262" y="760.9951">Button loadBudgetBtn</text><polygon fill="none" points="253,769.9453,249,775.9453,257,775.9453" style="stroke:#1963A0;stroke-width:1.0;"/><text fill="#000000" font-family="sans-serif" font-size="14" lengthAdjust="spacing" textLength="254" x="262" y="777.292">BudgetController budgetController</text><polygon fill="none" points="253,786.2422,249,792.2422,257,792.2422" style="stroke:#1963A0;stroke-width:1.0;"/><text fill="#000000" font-family="sans-serif" font-size="14" lengthAdjust="spacing" textLength="111" x="262" y="793.5889">Calculation calc</text><line style="stroke:#181818;stroke-width:0.5;" x1="243" x2="521" y1="800.8906" y2="800.8906"/><ellipse cx="253" cy="814.5391" fill="#84BE84" rx="3" ry="3" style="stroke:#038048;stroke-width:1.0;"/><text fill="#000000" font-family="sans-serif" font-size="14" lengthAdjust="spacing" textLength="105" x="262" y="817.8857">void initialize()</text><rect fill="#F24D5C" height="6" style="stroke:#C82930;stroke-width:1.0;" width="6" x="250" y="827.8359"/><text fill="#000000" font-family="sans-serif" font-size="14" lengthAdjust="spacing" textLength="245" x="262" y="834.1826">void loadNewBudget(ActionEvent)</text><rect fill="#F24D5C" height="6" style="stroke:#C82930;stroke-width:1.0;" width="6" x="250" y="844.1328"/><text fill="#000000" font-family="sans-serif" font-size="14" lengthAdjust="spacing" textLength="247" x="262" y="850.4795">void loadPrevBudget(ActionEvent)</text></g><!--class BudgetApplication--><g id="elem_BudgetApplication"><rect codeLine="62" fill="#F1F1F1" height="80.5938" id="BudgetApplication" rx="3.5" ry="3.5" style="stroke:#181818;stroke-width:0.5;" width="167" x="22.5" y="432.5"/><ellipse cx="37.5" cy="448.5" fill="#ADD1B2" rx="11" ry="11" style="stroke:#181818;stroke-width:1.0;"/><path d="M39.8438,444.1719 C38.9063,443.7344 38.3125,443.5938 37.4375,443.5938 C34.8125,443.5938 32.8125,445.6719 32.8125,448.3906 L32.8125,449.5156 C32.8125,452.0938 34.9219,453.9844 37.8125,453.9844 C39.0313,453.9844 40.1875,453.6875 40.9375,453.1406 C41.5156,452.7344 41.8438,452.2813 41.8438,451.8906 C41.8438,451.4375 41.4531,451.0469 40.9844,451.0469 C40.7656,451.0469 40.5625,451.125 40.375,451.3125 C39.9219,451.7969 39.9219,451.7969 39.7344,451.8906 C39.3125,452.1563 38.625,452.2813 37.8594,452.2813 C35.8125,452.2813 34.5156,451.1875 34.5156,449.4844 L34.5156,448.3906 C34.5156,446.6094 35.7656,445.2969 37.5,445.2969 C38.0781,445.2969 38.6875,445.4531 39.1563,445.7031 C39.6406,445.9844 39.8125,446.2031 39.9063,446.6094 C39.9688,447.0156 40,447.1406 40.1406,447.2656 C40.2813,447.4063 40.5156,447.5156 40.7344,447.5156 C41,447.5156 41.2656,447.375 41.4375,447.1563 C41.5469,447 41.5781,446.8125 41.5781,446.3906 L41.5781,444.9688 C41.5781,444.5313 41.5625,444.4063 41.4688,444.25 C41.3125,443.9844 41.0313,443.8438 40.7344,443.8438 C40.4375,443.8438 40.2344,443.9375 40.0156,444.25 L39.8438,444.1719 Z " fill="#000000"/><text fill="#000000" font-family="sans-serif" font-size="14" lengthAdjust="spacing" textLength="135" x="51.5" y="453.3467">BudgetApplication</text><line style="stroke:#181818;stroke-width:0.5;" x1="23.5" x2="188.5" y1="464.5" y2="464.5"/><line style="stroke:#181818;stroke-width:0.5;" x1="23.5" x2="188.5" y1="472.5" y2="472.5"/><ellipse cx="33.5" cy="486.1484" fill="#84BE84" rx="3" ry="3" style="stroke:#038048;stroke-width:1.0;"/><text fill="#000000" font-family="sans-serif" font-size="14" lengthAdjust="spacing" textLength="121" x="42.5" y="489.4951">void start(Stage)</text><ellipse cx="33.5" cy="502.4453" fill="#84BE84" rx="3" ry="3" style="stroke:#038048;stroke-width:1.0;"/><text fill="#000000" font-family="sans-serif" font-size="14" lengthAdjust="spacing" text-decoration="underline" textLength="133" x="42.5" y="505.792">void main(String[])</text></g><!--class Json--><g id="elem_Json"><rect codeLine="46" fill="#F1F1F1" height="145.7813" id="Json" rx="3.5" ry="3.5" style="stroke:#181818;stroke-width:0.5;" width="273" x="1248.5" y="57"/><ellipse cx="1366.25" cy="73" fill="#ADD1B2" rx="11" ry="11" style="stroke:#181818;stroke-width:1.0;"/><path d="M1368.5938,68.6719 C1367.6563,68.2344 1367.0625,68.0938 1366.1875,68.0938 C1363.5625,68.0938 1361.5625,70.1719 1361.5625,72.8906 L1361.5625,74.0156 C1361.5625,76.5938 1363.6719,78.4844 1366.5625,78.4844 C1367.7813,78.4844 1368.9375,78.1875 1369.6875,77.6406 C1370.2656,77.2344 1370.5938,76.7813 1370.5938,76.3906 C1370.5938,75.9375 1370.2031,75.5469 1369.7344,75.5469 C1369.5156,75.5469 1369.3125,75.625 1369.125,75.8125 C1368.6719,76.2969 1368.6719,76.2969 1368.4844,76.3906 C1368.0625,76.6563 1367.375,76.7813 1366.6094,76.7813 C1364.5625,76.7813 1363.2656,75.6875 1363.2656,73.9844 L1363.2656,72.8906 C1363.2656,71.1094 1364.5156,69.7969 1366.25,69.7969 C1366.8281,69.7969 1367.4375,69.9531 1367.9063,70.2031 C1368.3906,70.4844 1368.5625,70.7031 1368.6563,71.1094 C1368.7188,71.5156 1368.75,71.6406 1368.8906,71.7656 C1369.0313,71.9063 1369.2656,72.0156 1369.4844,72.0156 C1369.75,72.0156 1370.0156,71.875 1370.1875,71.6563 C1370.2969,71.5 1370.3281,71.3125 1370.3281,70.8906 L1370.3281,69.4688 C1370.3281,69.0313 1370.3125,68.9063 1370.2188,68.75 C1370.0625,68.4844 1369.7813,68.3438 1369.4844,68.3438 C1369.1875,68.3438 1368.9844,68.4375 1368.7656,68.75 L1368.5938,68.6719 Z " fill="#000000"/><text fill="#000000" font-family="sans-serif" font-size="14" lengthAdjust="spacing" textLength="29" x="1386.75" y="77.8467">Json</text><line style="stroke:#181818;stroke-width:0.5;" x1="1249.5" x2="1520.5" y1="89" y2="89"/><rect fill="none" height="6" style="stroke:#C82930;stroke-width:1.0;" width="6" x="1256.5" y="99.6484"/><text fill="#000000" font-family="sans-serif" font-size="14" lengthAdjust="spacing" text-decoration="underline" textLength="210" x="1268.5" y="105.9951">ObjectMapper objectMapper</text><line style="stroke:#181818;stroke-width:0.5;" x1="1249.5" x2="1520.5" y1="113.2969" y2="113.2969"/><ellipse cx="1259.5" cy="126.9453" fill="#84BE84" rx="3" ry="3" style="stroke:#038048;stroke-width:1.0;"/><text fill="#000000" font-family="sans-serif" font-size="14" lengthAdjust="spacing" text-decoration="underline" textLength="247" x="1268.5" y="130.292">ObjectMapper getObjectMapper()</text><ellipse cx="1259.5" cy="143.2422" fill="#84BE84" rx="3" ry="3" style="stroke:#038048;stroke-width:1.0;"/><text fill="#000000" font-family="sans-serif" font-size="14" lengthAdjust="spacing" text-decoration="underline" textLength="164" x="1268.5" y="146.5889">JsonNode parse(String)</text><ellipse cx="1259.5" cy="159.5391" fill="#84BE84" rx="3" ry="3" style="stroke:#038048;stroke-width:1.0;"/><text fill="#000000" font-family="sans-serif" font-size="14" lengthAdjust="spacing" text-decoration="underline" textLength="226" x="1268.5" y="162.8857">A fromJson(JsonNode,Class&lt;A&gt;)</text><ellipse cx="1259.5" cy="175.8359" fill="#84BE84" rx="3" ry="3" style="stroke:#038048;stroke-width:1.0;"/><text fill="#000000" font-family="sans-serif" font-size="14" lengthAdjust="spacing" text-decoration="underline" textLength="174" x="1268.5" y="179.1826">JsonNode toJson(Object)</text><ellipse cx="1259.5" cy="192.1328" fill="#84BE84" rx="3" ry="3" style="stroke:#038048;stroke-width:1.0;"/><text fill="#000000" font-family="sans-serif" font-size="14" lengthAdjust="spacing" text-decoration="underline" textLength="133" x="1268.5" y="195.4795">void main(String[])</text></g><!--class FileUtility--><g id="elem_FileUtility"><rect codeLine="66" fill="#F1F1F1" height="162.0781" id="FileUtility" rx="3.5" ry="3.5" style="stroke:#181818;stroke-width:0.5;" width="243" x="970.5" y="49"/><ellipse cx="1053.75" cy="65" fill="#ADD1B2" rx="11" ry="11" style="stroke:#181818;stroke-width:1.0;"/><path d="M1056.0938,60.6719 C1055.1563,60.2344 1054.5625,60.0938 1053.6875,60.0938 C1051.0625,60.0938 1049.0625,62.1719 1049.0625,64.8906 L1049.0625,66.0156 C1049.0625,68.5938 1051.1719,70.4844 1054.0625,70.4844 C1055.2813,70.4844 1056.4375,70.1875 1057.1875,69.6406 C1057.7656,69.2344 1058.0938,68.7813 1058.0938,68.3906 C1058.0938,67.9375 1057.7031,67.5469 1057.2344,67.5469 C1057.0156,67.5469 1056.8125,67.625 1056.625,67.8125 C1056.1719,68.2969 1056.1719,68.2969 1055.9844,68.3906 C1055.5625,68.6563 1054.875,68.7813 1054.1094,68.7813 C1052.0625,68.7813 1050.7656,67.6875 1050.7656,65.9844 L1050.7656,64.8906 C1050.7656,63.1094 1052.0156,61.7969 1053.75,61.7969 C1054.3281,61.7969 1054.9375,61.9531 1055.4063,62.2031 C1055.8906,62.4844 1056.0625,62.7031 1056.1563,63.1094 C1056.2188,63.5156 1056.25,63.6406 1056.3906,63.7656 C1056.5313,63.9063 1056.7656,64.0156 1056.9844,64.0156 C1057.25,64.0156 1057.5156,63.875 1057.6875,63.6563 C1057.7969,63.5 1057.8281,63.3125 1057.8281,62.8906 L1057.8281,61.4688 C1057.8281,61.0313 1057.8125,60.9063 1057.7188,60.75 C1057.5625,60.4844 1057.2813,60.3438 1056.9844,60.3438 C1056.6875,60.3438 1056.4844,60.4375 1056.2656,60.75 L1056.0938,60.6719 Z " fill="#000000"/><text fill="#000000" font-family="sans-serif" font-size="14" lengthAdjust="spacing" textLength="68" x="1074.25" y="69.8467">FileUtility</text><line style="stroke:#181818;stroke-width:0.5;" x1="971.5" x2="1212.5" y1="81" y2="81"/><ellipse cx="981.5" cy="94.6484" fill="none" rx="3" ry="3" style="stroke:#038048;stroke-width:1.0;"/><text fill="#000000" font-family="sans-serif" font-size="14" lengthAdjust="spacing" text-decoration="underline" textLength="92" x="990.5" y="97.9951">boolean load</text><rect fill="none" height="6" style="stroke:#C82930;stroke-width:1.0;" width="6" x="978.5" y="107.9453"/><text fill="#000000" font-family="sans-serif" font-size="14" lengthAdjust="spacing" text-decoration="underline" textLength="169" x="990.5" y="114.292">String currentDirectory</text><rect fill="none" height="6" style="stroke:#C82930;stroke-width:1.0;" width="6" x="978.5" y="124.2422"/><text fill="#000000" font-family="sans-serif" font-size="14" lengthAdjust="spacing" text-decoration="underline" textLength="104" x="990.5" y="130.5889">String filePath</text><line style="stroke:#181818;stroke-width:0.5;" x1="971.5" x2="1212.5" y1="137.8906" y2="137.8906"/><ellipse cx="981.5" cy="151.5391" fill="#84BE84" rx="3" ry="3" style="stroke:#038048;stroke-width:1.0;"/><text fill="#000000" font-family="sans-serif" font-size="14" lengthAdjust="spacing" text-decoration="underline" textLength="203" x="990.5" y="154.8857">void writeToFile(Calculation)</text><ellipse cx="981.5" cy="167.8359" fill="#84BE84" rx="3" ry="3" style="stroke:#038048;stroke-width:1.0;"/><text fill="#000000" font-family="sans-serif" font-size="14" lengthAdjust="spacing" text-decoration="underline" textLength="217" x="990.5" y="171.1826">void readFromFile(Calculation)</text><ellipse cx="981.5" cy="184.1328" fill="#84BE84" rx="3" ry="3" style="stroke:#038048;stroke-width:1.0;"/><text fill="#000000" font-family="sans-serif" font-size="14" lengthAdjust="spacing" text-decoration="underline" textLength="131" x="990.5" y="187.4795">boolean getLoad()</text><ellipse cx="981.5" cy="200.4297" fill="#84BE84" rx="3" ry="3" style="stroke:#038048;stroke-width:1.0;"/><text fill="#000000" font-family="sans-serif" font-size="14" lengthAdjust="spacing" text-decoration="underline" textLength="133" x="990.5" y="203.7764">void main(String[])</text></g><!--class Application--><g id="elem_Application"><rect fill="#F1F1F1" height="48" id="Application" rx="3.5" ry="3.5" style="stroke:#181818;stroke-width:0.5;" width="115" x="48.5" y="106"/><ellipse cx="63.5" cy="122" fill="#ADD1B2" rx="11" ry="11" style="stroke:#181818;stroke-width:1.0;"/><path d="M65.8438,117.6719 C64.9063,117.2344 64.3125,117.0938 63.4375,117.0938 C60.8125,117.0938 58.8125,119.1719 58.8125,121.8906 L58.8125,123.0156 C58.8125,125.5938 60.9219,127.4844 63.8125,127.4844 C65.0313,127.4844 66.1875,127.1875 66.9375,126.6406 C67.5156,126.2344 67.8438,125.7813 67.8438,125.3906 C67.8438,124.9375 67.4531,124.5469 66.9844,124.5469 C66.7656,124.5469 66.5625,124.625 66.375,124.8125 C65.9219,125.2969 65.9219,125.2969 65.7344,125.3906 C65.3125,125.6563 64.625,125.7813 63.8594,125.7813 C61.8125,125.7813 60.5156,124.6875 60.5156,122.9844 L60.5156,121.8906 C60.5156,120.1094 61.7656,118.7969 63.5,118.7969 C64.0781,118.7969 64.6875,118.9531 65.1563,119.2031 C65.6406,119.4844 65.8125,119.7031 65.9063,120.1094 C65.9688,120.5156 66,120.6406 66.1406,120.7656 C66.2813,120.9063 66.5156,121.0156 66.7344,121.0156 C67,121.0156 67.2656,120.875 67.4375,120.6563 C67.5469,120.5 67.5781,120.3125 67.5781,119.8906 L67.5781,118.4688 C67.5781,118.0313 67.5625,117.9063 67.4688,117.75 C67.3125,117.4844 67.0313,117.3438 66.7344,117.3438 C66.4375,117.3438 66.2344,117.4375 66.0156,117.75 L65.8438,117.6719 Z " fill="#000000"/><text fill="#000000" font-family="sans-serif" font-size="14" lengthAdjust="spacing" textLength="83" x="77.5" y="126.8467">Application</text><line style="stroke:#181818;stroke-width:0.5;" x1="49.5" x2="162.5" y1="138" y2="138"/><line style="stroke:#181818;stroke-width:0.5;" x1="49.5" x2="162.5" y1="146" y2="146"/></g><!--reverse link Application to BudgetApplication--><g id="link_Application_BudgetApplication"><path codeLine="77" d="M106,172.17 C106,229.508 106,360.56 106,432.292 " fill="none" id="Application-backto-BudgetApplication" style="stroke:#454645;stroke-width:1.0;"/><polygon fill="none" points="106,154.17,100,172.17,112,172.17,106,154.17" style="stroke:#454645;stroke-width:1.0;"/></g><!--SRC=[bLLDRzim3BtdLtWt5qlo2u82YRTY6Ve59Drbs46HsKITB0KIdJRhkjy-IfPifVQAxXB8ZnJv-4Wg7t075MIeZoCkcRKPrmQc1KFOQdFCdaUJR8L6g6t60tRDAY1KACnOfMk5z34tXXqlXSNPKf4NcFECbIMKS-zWHnzZa2rWaSJ9pyZa8X7U-7hae4Nf0WI871mwa8IkBUgIVhyGJ37zxP0ATNCWxEMqDibhoL1evSlhmaPcvx5M0TOPUepMEhhcyJ0E94CngxfgJGvk1Kq4o1j-oQsrHYRTrJFYjT5Q0bCPtm7_sUHTMgh001-GfEFUPGZqlIZF5gba_j9KKZ6XGlhlFpfzQZ4jTanjOSL10Qdp-XxtrhNszhnmbyQV3w1m76j9GZMTARH2ewK4uzLku_MiGf59SJTRQxQHy4t0Or8MEeniYngHEcVP0HQe25XMREkTFRRase5hUC8B0RAaiFiQktl-ixdeinHQrfLgyuGwsWau_iklctFVcJiBfLkLlHHuoqWx6q-45hhQw8L-ciNW5YGrKPj0b4QrwNj7qm3MHbs1gXkkDniBvk2834-g7mANAXbkJkUqWpt5wMiPHE_MJYY1Wadn2_mKUangLbxHo3W- -PoxwBxh0xlQGhv1FcEoW3KAakKu_Mh3yhNaRZOF9CaLs- -9c4u-qWfEd2Xo-dqwvIx1jIuXspDZ8TcqrcEUtHjTERyyEe_zGC_cvyEXK7ll9kd_xDGAcK6dtQjT2BrswZPAkLx_wVTfymeWdu4-lzczQtWCpJXfN-9nQ-0mvD9RwFcUHfl7zpDssvL8rTCglb-PC0mNGi9TSpvzSk8BwEYbinB_a6fw2nL-4iOlqt70vPv2tpBSzIWz6e7qZhdKUQ9bdxi1LbxGeBpf6OcIEfV4zJqFxcZqm0xi_cdAEZcdgRIptvF9eEX_0G00]--></g></svg>